<svg xmlns="http://www.w3.org/2000/svg" viewBox="0 0 45.22 52.56"><defs><style>.cls-1{fill:#b91c1c;}</style></defs><title>Asset 4</title><g id="Layer_2" data-name="Layer 2"><g id="Layer_1-2" data-name="Layer 1"><path class="cls-1" d="M8.69,50.18A25,25,0,0,1,0,43.27L8.64,35a19.64,19.64,0,0,0,6.08,4.08,17,17,0,0,0,6.7,1.43c2.18,0,3.72-.38,4.61-1.12a3.27,3.27,0,0,0,1.33-2.56q0-3.37-7.56-6.12a22.65,22.65,0,0,1-8.23-5.13,12.09,12.09,0,0,1-3.47-9A17.81,17.81,0,0,1,9.81,9.13a15.1,15.1,0,0,1,6-6.45Q20.09,0,27.25,0A25.55,25.55,0,0,1,37.53,2a21.68,21.68,0,0,1,7.69,5.49l-8.61,8.75a20.85,20.85,0,0,0-4.62-3A12.58,12.58,0,0,0,26.46,12a5.93,5.93,0,0,0-3.8,1,3,3,0,0,0-1.24,2.41A3.67,3.67,0,0,0,23,18.2a17.88,17.88,0,0,0,5.31,2.57,21.49,21.49,0,0,1,9.11,5.53,12.1,12.1,0,0,1,3.2,8.48A16.91,16.91,0,0,1,38.39,43a17.8,17.8,0,0,1-7,6.84,23.38,23.38,0,0,1-11.82,2.74A24.87,24.87,0,0,1,8.69,50.18Z"/></g></g></svg>