<svg xmlns="http://www.w3.org/2000/svg" xmlns:xlink="http://www.w3.org/1999/xlink" viewBox="0 0 171.57 162.75"><defs><style>.cls-1{isolation:isolate;}.cls-2{fill:url(#linear-gradient);}.cls-3{fill:url(#radial-gradient);}.cls-4{fill:url(#radial-gradient-2);}.cls-5{opacity:0.22;}.cls-10,.cls-5{mix-blend-mode:multiply;}.cls-6{fill:url(#radial-gradient-3);}.cls-7{fill:url(#radial-gradient-4);}.cls-8{fill:url(#radial-gradient-5);}.cls-9{fill:url(#radial-gradient-6);}.cls-10{fill:#dce8ef;}</style><linearGradient id="linear-gradient" x1="91.05" y1="-17.72" x2="91.05" y2="160.71" gradientTransform="matrix(0, 1, 1, 0, 5.4, -9.67)" gradientUnits="userSpaceOnUse"><stop offset="0" stop-color="#ff006c"/><stop offset="1" stop-color="#6c00ea"/></linearGradient><radialGradient id="radial-gradient" cx="75.94" cy="22.98" r="145.51" gradientTransform="matrix(0, 1, 1, 0, 5.4, -9.67)" xlink:href="#linear-gradient"/><radialGradient id="radial-gradient-2" cx="107.42" cy="42.3" r="43.93" gradientTransform="matrix(-0.16, 0.99, 0.99, 0.16, 25.07, -17.28)" xlink:href="#linear-gradient"/><radialGradient id="radial-gradient-3" cx="111.61" cy="48.01" r="26.87" gradientTransform="matrix(-0.92, 0.38, 0.38, 0.92, 149.79, 10.63)" gradientUnits="userSpaceOnUse"><stop offset="0" stop-color="#fec70a"/><stop offset="1" stop-color="#fb5507"/></radialGradient><radialGradient id="radial-gradient-4" cx="150.27" cy="144.32" r="9.03" gradientTransform="matrix(0, 1, 1, 0, 5.4, -9.67)" xlink:href="#radial-gradient-3"/><radialGradient id="radial-gradient-5" cx="27.01" cy="11.05" r="10.14" gradientTransform="matrix(0, 1, 1, 0, 5.4, -9.67)" xlink:href="#radial-gradient-3"/><radialGradient id="radial-gradient-6" cx="38" cy="125.11" r="21.01" gradientTransform="matrix(-0.71, 0.71, 0.71, 0.71, 74.62, -90.47)" xlink:href="#radial-gradient-3"/></defs><title>logo</title><g class="cls-1"><g id="Layer_2" data-name="Layer 2"><g id="OBJECTS"><path class="cls-2" d="M135.11,149.36a18.8,18.8,0,1,0,9.49-23.53c-.53.26-1,.53-1.54.83a17.48,17.48,0,0,1-14.75,1.15h0a17.56,17.56,0,0,1-11.79-17.16c0-.68,0-1.36,0-2a53.84,53.84,0,0,0-6.09-24.94,15.92,15.92,0,0,1,2.91-18.59h0a16,16,0,0,1,15.88-4,28.86,28.86,0,1,0-19.61-20.41,15.89,15.89,0,0,1-4.18,15.25l-1,1a16.17,16.17,0,0,1-18.59,2.92,53.87,53.87,0,0,0-23.47-5.36,54.58,54.58,0,0,0-8.54.67A16.71,16.71,0,0,1,35.33,44.58l-.12-.32a15.88,15.88,0,0,1,1.44-13.91,20.66,20.66,0,0,0,1.17-2.18,19.64,19.64,0,0,0,1.86-8.33A19.86,19.86,0,0,0,10.91,2.12a19.83,19.83,0,0,0,.58,35.69c.64.29,1.29.55,1.94.78a16.59,16.59,0,0,1,10.44,9.82l2.35,6.43a16.63,16.63,0,0,1-3.53,17,54.12,54.12,0,1,0,80.86,71.91,18,18,0,0,1,19.6-5l1.45.51A17.17,17.17,0,0,1,135.11,149.36ZM16.58,26.85a7.75,7.75,0,1,1,10.15-3.48,8.34,8.34,0,0,1-3.81,3.52l-.42.21A7.65,7.65,0,0,1,16.58,26.85ZM140.83,49.91A16.76,16.76,0,1,1,154,36.76,16.77,16.77,0,0,1,140.83,49.91Zm-44,54.17a34.73,34.73,0,1,1-29.91-29.9A34.76,34.76,0,0,1,96.85,104.08Zm53.65,45.1a6.74,6.74,0,0,1-4.51-6.37,6.75,6.75,0,1,1,4.51,6.37Z"/><path class="cls-3" d="M168.45,148.35a16.64,16.64,0,0,1-31.31.26,19.3,19.3,0,0,0-11.82-11.35l-1.46-.51a20.17,20.17,0,0,0-22,5.62,52,52,0,0,1-91.07-27.26,52.75,52.75,0,0,1-.4-6.5A51.81,51.81,0,0,1,24.28,73.33a19,19,0,0,0,5.1-12.89,18.36,18.36,0,0,0-1.13-6.35L25.9,47.66A18.79,18.79,0,0,0,14.13,36.54a18.33,18.33,0,0,1-1.73-.69A17.66,17.66,0,0,1,2.58,23.6a16.73,16.73,0,0,1-.42-3.73A17.77,17.77,0,0,1,11.87,4.06,17.68,17.68,0,0,1,37.51,19.84a17.45,17.45,0,0,1-1.65,7.42,17.24,17.24,0,0,1-1,1.94,18,18,0,0,0-2.74,9.56A18.24,18.24,0,0,0,33.18,45l.12.33a19,19,0,0,0,20.92,12,52.22,52.22,0,0,1,8.2-.65,51.24,51.24,0,0,1,22.52,5.15A18.43,18.43,0,0,0,106,58.44l1-1a18.25,18.25,0,0,0,5.32-12.8,17.62,17.62,0,0,0-.58-4.52,26.14,26.14,0,0,1-.85-6.65,27.47,27.47,0,0,1,.24-3.61A26.89,26.89,0,0,1,134.25,7,26.7,26.7,0,0,1,164.2,33.48,27.37,27.37,0,0,1,164,37a26.78,26.78,0,0,1-23.56,23,26.47,26.47,0,0,1-10.53-1,18.12,18.12,0,0,0-21.34,25.66,52,52,0,0,1,5.85,23.94c0,.65,0,1.3,0,2,0,.25,0,.5,0,.74a19.75,19.75,0,0,0,13.24,18.55,19.54,19.54,0,0,0,16.58-1.33c.44-.27.9-.51,1.36-.74a16.65,16.65,0,0,1,22.92,20.57Zm-23.75-1.69a8.85,8.85,0,1,0-.88-3.85A8.87,8.87,0,0,0,144.7,146.66ZM125.52,48.05A18.89,18.89,0,0,0,156.1,37.16a19.94,19.94,0,0,0,.35-3.68A18.91,18.91,0,0,0,119,29.8a19.94,19.94,0,0,0-.35,3.68A18.85,18.85,0,0,0,125.52,48.05ZM25.85,113.4a36.88,36.88,0,0,0,73.45-4.79,38.68,38.68,0,0,0-.31-4.8,36.88,36.88,0,0,0-73.45,4.8A38.52,38.52,0,0,0,25.85,113.4ZM10.53,23.23a9.92,9.92,0,0,0,12.71,5.9l.12,0,.53-.26a10.55,10.55,0,0,0,4.77-4.47,10.15,10.15,0,0,0,1.1-4.53,10,10,0,0,0-1.36-5,9.91,9.91,0,0,0-17.87,8.4Z"/><circle class="cls-4" cx="62.41" cy="108.53" r="35.01" transform="translate(-16.58 11.4) rotate(-9.22)"/><g class="cls-5"><circle cx="64.41" cy="110.53" r="21.41" transform="translate(-62.35 127.73) rotate(-67.5)"/></g><circle class="cls-6" cx="62.41" cy="108.53" r="21.41" transform="translate(-61.74 124.65) rotate(-67.5)"/><g class="cls-5"><path d="M154.74,152a7.2,7.2,0,1,0-7.2-7.2A7.2,7.2,0,0,0,154.74,152Z"/></g><path class="cls-7" d="M152.74,150a7.2,7.2,0,1,0-7.2-7.2A7.2,7.2,0,0,0,152.74,150Z"/><g class="cls-5"><circle cx="21.84" cy="21.82" r="8.08"/></g><circle class="cls-8" cx="19.84" cy="19.82" r="8.08"/><g class="cls-5"><circle cx="139.55" cy="35.48" r="16.74" transform="translate(15.78 109.07) rotate(-45)"/></g><circle class="cls-9" cx="137.55" cy="33.48" r="16.74" transform="translate(16.61 107.07) rotate(-45)"/><path class="cls-10" d="M164.2,33.48a26.69,26.69,0,0,0-7.76-18.78L151,20.19a18.83,18.83,0,0,1,5.49,13.29,19.94,19.94,0,0,1-.35,3.68,18.89,18.89,0,0,1-30.58,10.89c-.45-.36-.86-.76-1.27-1.16L88.51,82.64A36.62,36.62,0,0,1,99,103.81a38.68,38.68,0,0,1,.31,4.8,36.79,36.79,0,0,1-62.85,26.08L25.73,145.41a51.92,51.92,0,0,0,76.18-3,20.17,20.17,0,0,1,22-5.62l1.46.51a19.3,19.3,0,0,1,11.82,11.35,16.63,16.63,0,1,0,8.39-20.83c-.46.23-.92.47-1.36.74a19.54,19.54,0,0,1-16.58,1.33,19.75,19.75,0,0,1-13.24-18.55c0-.24,0-.49,0-.74,0-.65,0-1.3,0-2a52,52,0,0,0-5.85-23.94A18.13,18.13,0,0,1,129.89,59a26.47,26.47,0,0,0,10.53,1A26.78,26.78,0,0,0,164,37,27.37,27.37,0,0,0,164.2,33.48Zm-8.5,100.93a8.92,8.92,0,1,1-6.81.37A8.81,8.81,0,0,1,155.7,134.41Z"/></g></g></g></svg>