<?xml version="1.0" standalone="no"?>
<!DOCTYPE svg PUBLIC "-//W3C//DTD SVG 20010904//EN"
 "http://www.w3.org/TR/2001/REC-SVG-20010904/DTD/svg10.dtd">
<svg version="1.0" xmlns="http://www.w3.org/2000/svg"
 width="848.000000pt" height="848.000000pt" viewBox="0 0 848.000000 848.000000"
 preserveAspectRatio="xMidYMid meet">
<metadata>
Created by potrace 1.14, written by Peter Selinger 2001-2017
</metadata>
<g transform="translate(0.000000,848.000000) scale(0.100000,-0.100000)"
fill="#000000" stroke="none">
<path d="M4688 8475 c-1 -1 -43 -6 -93 -9 -49 -3 -103 -8 -120 -10 -16 -3 -61
-7 -100 -10 -38 -4 -77 -8 -85 -11 -8 -2 -35 -6 -60 -9 -25 -4 -56 -8 -70 -11
-47 -9 -75 -15 -130 -26 -30 -6 -62 -13 -70 -14 -8 -2 -15 -4 -15 -5 0 -1 -11
-3 -24 -6 -183 -34 -529 -169 -718 -280 -174 -103 -362 -233 -371 -256 -2 -4
-8 -8 -12 -8 -24 0 -250 -226 -347 -345 -35 -44 -90 -118 -121 -165 -31 -47
-60 -87 -63 -90 -3 -3 -12 -18 -21 -35 -8 -16 -40 -77 -70 -135 -51 -99 -113
-244 -143 -335 -49 -150 -69 -222 -90 -322 -3 -13 -7 -33 -10 -45 -8 -39 -14
-72 -19 -98 -2 -14 -7 -43 -10 -65 -31 -189 -38 -610 -12 -738 2 -7 6 -30 10
-52 4 -22 12 -61 17 -86 6 -26 12 -53 13 -60 2 -8 5 -21 8 -29 3 -8 11 -35 17
-60 7 -25 16 -54 20 -65 17 -38 36 -90 37 -101 3 -18 95 -201 143 -282 64
-110 178 -257 267 -346 41 -41 139 -131 184 -169 25 -21 54 -47 65 -56 29 -26
212 -162 268 -200 65 -44 242 -151 292 -176 22 -11 42 -22 45 -25 12 -12 51
-30 64 -30 8 0 16 -3 18 -8 5 -12 195 -97 329 -147 68 -25 134 -50 147 -56 67
-28 100 -40 105 -37 1 1 13 -5 27 -12 14 -8 28 -13 33 -12 4 1 7 -3 7 -10 0
-6 3 -9 6 -6 8 9 263 -110 394 -183 75 -42 238 -152 280 -190 74 -65 152 -146
178 -184 15 -22 29 -42 32 -45 3 -3 15 -23 26 -45 55 -104 72 -226 47 -337
-15 -67 -48 -149 -63 -158 -4 -3 -10 -11 -12 -19 -2 -8 -25 -39 -53 -69 -44
-48 -90 -83 -175 -133 -23 -14 -139 -58 -164 -63 -6 -2 -36 -8 -66 -14 -118
-25 -227 -35 -400 -35 -129 0 -288 8 -320 18 -8 2 -37 6 -65 9 -27 3 -60 8
-71 10 -12 2 -37 7 -55 10 -266 44 -635 185 -934 358 -200 115 -463 313 -598
450 -15 15 -29 28 -32 28 -4 0 -117 -107 -260 -245 -34 -33 -137 -132 -230
-220 -92 -88 -193 -185 -225 -215 -31 -30 -142 -136 -245 -235 -104 -99 -212
-202 -240 -230 -29 -27 -85 -81 -124 -119 -71 -68 -72 -69 -53 -90 10 -12 47
-55 82 -96 69 -80 291 -305 377 -382 112 -100 305 -250 391 -303 9 -5 25 -18
36 -27 11 -10 25 -18 31 -18 6 0 20 -8 31 -18 54 -49 349 -209 544 -295 127
-56 334 -135 370 -142 3 0 21 -6 41 -13 20 -7 45 -15 55 -17 10 -3 51 -14 89
-25 39 -12 111 -30 160 -41 50 -11 99 -22 110 -24 11 -3 34 -7 50 -10 17 -2
57 -9 90 -15 33 -6 78 -13 100 -16 22 -2 56 -7 75 -9 121 -17 215 -20 560 -20
342 0 487 5 554 20 12 3 42 7 68 10 26 2 58 7 70 10 13 2 37 6 53 9 45 6 227
46 300 66 22 6 47 13 55 15 8 2 15 4 15 5 0 1 11 3 23 6 28 5 278 90 307 104
11 5 60 26 109 46 49 19 96 39 105 44 9 4 61 31 116 58 132 66 167 85 182 99
7 6 22 15 33 18 11 3 20 11 20 16 0 5 3 8 8 7 6 -2 65 34 107 64 62 46 193
144 201 153 6 5 47 42 90 80 268 240 484 525 653 863 34 67 58 122 55 122 -4
0 1 8 10 19 9 10 16 22 15 27 -1 5 2 20 8 34 68 166 137 418 158 579 3 20 7
45 9 57 26 127 26 570 0 684 -3 14 -8 43 -11 65 -3 22 -9 48 -14 57 -5 9 -9
26 -9 37 0 80 -203 552 -251 581 -6 4 -10 11 -10 16 2 11 -102 152 -156 214
-64 72 -186 189 -278 265 -33 28 -62 52 -65 55 -12 13 -201 151 -255 186 -33
21 -62 41 -65 44 -5 5 -8 7 -150 88 -160 91 -491 242 -532 242 -8 0 -18 4 -24
8 -8 7 -221 79 -257 86 -7 2 -21 7 -32 11 -11 4 -60 24 -110 43 -78 30 -181
78 -327 153 -43 22 -231 139 -238 149 -3 3 -22 16 -42 29 -88 53 -177 176
-224 306 -20 58 -28 196 -13 251 28 106 111 226 194 281 78 52 246 126 290
128 6 0 15 3 20 7 43 26 404 28 575 4 91 -13 135 -20 140 -21 3 -1 19 -5 35
-9 149 -36 292 -85 430 -149 72 -34 141 -68 155 -78 14 -9 35 -20 48 -23 12
-4 22 -12 22 -17 0 -5 6 -9 13 -9 7 0 36 -16 66 -35 29 -19 55 -35 58 -35 11
0 203 -138 295 -212 l97 -78 195 198 c107 108 297 301 422 427 124 127 350
356 501 509 l274 279 -43 45 c-115 120 -236 234 -310 294 -23 18 -55 45 -72
59 -94 77 -323 235 -416 285 -19 10 -38 24 -42 29 -4 6 -8 6 -8 1 0 -5 -8 -2
-17 6 -33 28 -281 146 -423 201 -36 13 -74 28 -85 32 -11 5 -22 9 -25 10 -3 1
-14 5 -25 9 -106 41 -467 141 -540 151 -16 2 -51 8 -76 14 -25 6 -63 13 -85
16 -21 2 -50 7 -64 10 -23 4 -135 18 -240 30 -50 6 -726 15 -732 10z"/>
</g>
</svg>
