<?xml version="1.0" standalone="no"?>
<!DOCTYPE svg PUBLIC "-//W3C//DTD SVG 20010904//EN"
 "http://www.w3.org/TR/2001/REC-SVG-20010904/DTD/svg10.dtd">
<svg version="1.0" xmlns="http://www.w3.org/2000/svg"
 width="688.000000pt" height="688.000000pt" viewBox="0 0 688.000000 688.000000"
 preserveAspectRatio="xMidYMid meet">
<metadata>
Created by potrace 1.14, written by Peter Selinger 2001-2017
</metadata>
<g transform="translate(0.000000,688.000000) scale(0.100000,-0.100000)"
fill="#000000" stroke="none">
<path d="M677 6693 c-3 -2 -17 -6 -33 -9 -172 -29 -349 -135 -460 -274 -24
-30 -49 -61 -55 -68 -12 -14 -83 -167 -93 -199 -4 -13 -9 -35 -12 -50 -3 -16
-9 -43 -14 -61 -13 -47 -4 -258 13 -317 8 -27 16 -57 18 -65 2 -8 23 -53 46
-100 73 -149 210 -287 351 -355 31 -15 65 -31 74 -36 10 -5 24 -9 32 -9 19 0
152 -68 186 -95 57 -45 157 -156 183 -205 27 -50 143 -351 152 -394 2 -12 8
-36 14 -54 5 -18 8 -83 7 -145 -6 -188 -50 -291 -201 -467 -45 -52 -105 -126
-133 -165 -28 -38 -55 -74 -60 -80 -4 -5 -21 -32 -37 -60 -16 -27 -35 -59 -42
-70 -14 -24 -87 -168 -89 -175 0 -3 -11 -27 -23 -55 -29 -63 -89 -236 -96
-277 -3 -17 -10 -39 -16 -49 -5 -11 -8 -19 -5 -19 2 0 0 -15 -4 -32 -5 -18
-12 -46 -14 -63 -3 -16 -8 -41 -11 -54 -2 -13 -7 -49 -10 -80 -3 -31 -9 -74
-11 -96 -15 -107 -1 -421 22 -535 3 -14 8 -40 10 -57 4 -26 37 -157 57 -228
21 -75 86 -232 134 -328 159 -318 364 -557 688 -805 23 -18 174 -112 180 -112
3 0 22 -10 43 -23 154 -95 487 -208 686 -233 21 -3 59 -9 85 -14 112 -22 549
-5 671 26 14 3 37 7 51 9 47 6 241 66 334 103 216 85 451 228 629 382 48 42
189 184 226 229 47 56 149 134 224 171 163 80 351 96 526 45 251 -74 412 -203
502 -403 49 -109 92 -192 100 -192 5 0 8 -5 8 -11 0 -15 92 -114 157 -169 60
-51 218 -122 300 -135 12 -2 36 -6 53 -10 18 -4 64 -7 103 -7 201 0 387 77
532 219 45 45 85 92 85 101 0 5 8 17 18 28 32 34 89 173 107 259 22 104 10
278 -27 384 -7 20 -13 38 -13 41 -6 40 -98 182 -157 242 -97 99 -188 155 -323
199 -77 25 -112 30 -210 31 -153 2 -229 -18 -425 -115 -53 -26 -109 -50 -125
-53 -17 -2 -38 -7 -47 -10 -61 -18 -197 -20 -278 -4 -95 20 -270 92 -270 112
0 4 -6 8 -13 8 -15 0 -122 101 -163 155 -45 58 -80 126 -104 197 -30 87 -30
93 -35 268 -5 220 -14 320 -40 465 -12 63 -67 271 -82 305 -8 19 -16 42 -18
50 -5 24 -33 88 -87 200 -28 58 -51 110 -52 115 -1 6 -7 26 -13 45 -17 50 -25
106 -25 170 -1 71 15 169 33 202 5 10 7 18 4 18 -9 0 66 140 90 169 59 73 177
171 204 171 6 0 11 4 11 9 0 10 95 45 165 60 89 19 194 18 280 -3 165 -40 269
-57 375 -59 80 -2 279 31 350 58 19 7 38 13 42 14 4 1 28 10 53 21 25 11 46
19 48 19 1 -1 31 16 67 37 162 94 306 229 403 376 31 48 57 89 57 92 0 3 14
34 30 68 17 35 32 70 34 78 2 8 6 22 9 30 19 49 34 109 42 170 2 14 4 25 5 25
9 0 13 236 6 299 -6 48 -14 93 -21 126 -3 14 -8 36 -11 49 -3 13 -20 64 -39
113 -79 203 -216 384 -390 513 -22 17 -42 32 -45 35 -16 16 -190 104 -245 123
-47 18 -61 21 -103 31 -9 2 -35 9 -57 15 -145 39 -424 29 -550 -19 -16 -6 -31
-11 -33 -10 -3 2 -25 -6 -87 -30 -86 -33 -258 -134 -302 -177 -10 -10 -35 -32
-54 -48 -53 -47 -164 -182 -199 -244 -8 -14 -17 -28 -20 -31 -12 -11 -80 -167
-80 -183 0 -9 -5 -17 -12 -17 -6 0 -9 -3 -5 -6 3 -3 1 -18 -4 -32 -17 -43 -39
-159 -45 -235 -12 -140 -5 -223 33 -397 34 -158 18 -301 -52 -441 -38 -76 -48
-90 -135 -179 -95 -97 -182 -152 -294 -184 -165 -48 -317 -33 -493 50 -32 15
-60 28 -63 29 -3 1 -23 9 -45 19 -102 44 -314 106 -419 122 -22 3 -43 7 -46 9
-4 2 -35 7 -71 10 -35 3 -77 8 -94 10 -44 7 -301 7 -365 0 -30 -3 -73 -8 -95
-10 -22 -2 -40 -4 -40 -5 0 -10 -195 -18 -220 -9 -11 3 -39 9 -63 12 -48 7
-169 53 -193 73 -8 8 -19 14 -24 14 -20 0 -185 166 -205 205 -8 17 -17 32 -20
35 -9 9 -48 104 -66 159 -17 57 -23 216 -10 284 13 66 45 148 85 217 89 155
122 280 117 445 -4 124 -7 140 -43 245 -36 104 -96 201 -178 285 -68 69 -152
135 -174 135 -6 0 -11 5 -11 10 0 6 -9 10 -20 10 -11 0 -20 5 -20 10 0 6 -6
10 -13 10 -8 0 -27 6 -43 14 -16 8 -41 17 -56 20 -15 2 -31 7 -36 10 -26 16
-302 33 -315 19z"/>
</g>
</svg>
