<svg xmlns="http://www.w3.org/2000/svg" viewBox="0 0 503.13 70.09"><defs><style>.cls-1{fill:#b91c1c;}</style></defs><title>SLDark</title><g id="Layer_2" data-name="Layer 2"><g id="Layer_1-2" data-name="Layer 1"><path d="M8.69,54.94A25.14,25.14,0,0,1,0,48l8.64-8.24a19.68,19.68,0,0,0,6.08,4.09,17.21,17.21,0,0,0,6.7,1.42c2.18,0,3.72-.37,4.61-1.12a3.25,3.25,0,0,0,1.33-2.55q0-3.39-7.56-6.12a22.92,22.92,0,0,1-8.23-5.13A12.13,12.13,0,0,1,8.1,21.31a17.84,17.84,0,0,1,1.71-7.43,15.1,15.1,0,0,1,6-6.45q4.29-2.67,11.45-2.68a25.55,25.55,0,0,1,10.28,2,21.68,21.68,0,0,1,7.69,5.49L36.61,21A21.22,21.22,0,0,0,32,18a12.58,12.58,0,0,0-5.53-1.26,6,6,0,0,0-3.8,1,3,3,0,0,0-1.24,2.41A3.67,3.67,0,0,0,23,23a17.64,17.64,0,0,0,5.31,2.57,21.49,21.49,0,0,1,9.11,5.53,12.12,12.12,0,0,1,3.2,8.48,17,17,0,0,1-2.25,8.21,17.93,17.93,0,0,1-7,6.84,23.49,23.49,0,0,1-11.82,2.73A25,25,0,0,1,8.69,54.94Z"/><path d="M59.22,69.08H46l8-12.88L47.3,18.14H60.37l2.7,23.91L76,18.14H89.68Z"/><path d="M124.18,18.79a10.27,10.27,0,0,1,4.43,4.2,13.09,13.09,0,0,1,1.57,6.57,21.39,21.39,0,0,1-.51,4.39L124.88,56.3H112.72L117,36.14a12.15,12.15,0,0,0,.28-2.62,5.27,5.27,0,0,0-1.24-3.77,4.76,4.76,0,0,0-3.62-1.31,9.51,9.51,0,0,0-4.14,1,11.58,11.58,0,0,0-3.58,2.66,7.78,7.78,0,0,0-1.89,3.46v0L98.42,56.3H86.26l8.13-38.16h9.36l.79,4.58a21.53,21.53,0,0,1,6.18-3.89,17.35,17.35,0,0,1,6.78-1.48A14.67,14.67,0,0,1,124.18,18.79Z"/><path d="M176.29,34.24l-.58,2.62-.46,2.27L171.57,56.3h-9.36l-.5-2.91a16.1,16.1,0,0,1-10.48,3.81,17.15,17.15,0,0,1-8.53-2.1A14.94,14.94,0,0,1,136.83,49a19.42,19.42,0,0,1-2.12-9.29,22.08,22.08,0,0,1,2.84-10.65,23.41,23.41,0,0,1,7.91-8.52,20.37,20.37,0,0,1,11.35-3.29q7.6,0,11.31,5l2.63-4.14h9Zm-28.17,8.08a6.64,6.64,0,0,0,2.72,2.61,8.11,8.11,0,0,0,3.81.9,8.59,8.59,0,0,0,4.83-1.39,10,10,0,0,0,4.5-8.19,8.28,8.28,0,0,0-1-4.12,6.19,6.19,0,0,0-2.6-2.57,8,8,0,0,0-3.75-.87,8.91,8.91,0,0,0-4.95,1.42,10,10,0,0,0-3.38,3.64,9.34,9.34,0,0,0-1.21,4.55A7.88,7.88,0,0,0,148.12,42.32Z"/><path d="M218.05,19.37A14.16,14.16,0,0,1,223.54,25a16.25,16.25,0,0,1,2,8,19.29,19.29,0,0,1-.47,4.28,24.4,24.4,0,0,1-4.71,10,26.93,26.93,0,0,1-8.55,7.27,21.37,21.37,0,0,1-10.24,2.68,11.73,11.73,0,0,1-8.39-3L190,69.08H177.8l2.74-12.78h0l8.14-38.16h9l.79,3.71A17.13,17.13,0,0,1,210,17.35,15.83,15.83,0,0,1,218.05,19.37Zm-4.93,15.91a6.39,6.39,0,0,0-1.84-4.77,6.64,6.64,0,0,0-4.89-1.82,9.68,9.68,0,0,0-4.54,1.12,10.94,10.94,0,0,0-3.69,3.09,10.61,10.61,0,0,0-2,4.43,9.26,9.26,0,0,0-.22,2,6.21,6.21,0,0,0,1.89,4.71,6.88,6.88,0,0,0,4.95,1.8,9.81,9.81,0,0,0,4.52-1.09,10.66,10.66,0,0,0,3.63-3.05,10.47,10.47,0,0,0,2-4.39A10,10,0,0,0,213.12,35.28Z"/><path d="M233.19,56a21.12,21.12,0,0,1-6.79-4.07l5.47-8.53q5.16,3.81,9.76,3.82a4.88,4.88,0,0,0,2.68-.56,1.61,1.61,0,0,0,.81-1.35,2.49,2.49,0,0,0-1.26-1.87,22,22,0,0,0-4.17-2.2,17.15,17.15,0,0,1-6-4.23,9.77,9.77,0,0,1-2.21-6.64,14.06,14.06,0,0,1,1.4-6,12.12,12.12,0,0,1,4.65-5.06,15.59,15.59,0,0,1,8.46-2,20.78,20.78,0,0,1,7.65,1.37,17.15,17.15,0,0,1,5.92,3.81l-6.91,7.92a12.11,12.11,0,0,0-3.48-2.07,10.3,10.3,0,0,0-3.69-.73,2.72,2.72,0,0,0-1.8.54,1.79,1.79,0,0,0-.65,1.44,1.71,1.71,0,0,0,.35,1.06,3.73,3.73,0,0,0,1.24.92,27.85,27.85,0,0,0,2.73,1.15,18.49,18.49,0,0,1,7.1,4.5,9.62,9.62,0,0,1,2.41,6.69,13,13,0,0,1-1.73,6.41,13.33,13.33,0,0,1-5.26,5.1,17.12,17.12,0,0,1-8.56,2A23.14,23.14,0,0,1,233.19,56Z"/><path d="M273.71,41.11a7.23,7.23,0,0,0,3,4.34,8.72,8.72,0,0,0,5,1.53,11.79,11.79,0,0,0,3.6-.54,14.31,14.31,0,0,0,3.49-1.73L293.33,53a19.83,19.83,0,0,1-6.07,3.3,21.15,21.15,0,0,1-16.34-1.23,16.83,16.83,0,0,1-6.68-6.35,17.23,17.23,0,0,1-2.38-8.93,21.85,21.85,0,0,1,2.86-10.53,23.87,23.87,0,0,1,8.12-8.64,21.78,21.78,0,0,1,12.1-3.4,18.74,18.74,0,0,1,8.76,1.91,13.51,13.51,0,0,1,5.64,5.27,15.21,15.21,0,0,1,1.94,7.72,23.21,23.21,0,0,1-1.83,9Zm16.7-7.88a7,7,0,0,0-1.87-4.45,6.47,6.47,0,0,0-4.79-1.64,9.21,9.21,0,0,0-5.44,1.68,11.09,11.09,0,0,0-3.67,4.41Z"/><path d="M337.39,56.3H303.48L314.24,5.72h13l-8.1,38.2h20.95Z"/><path d="M354.69,55a17,17,0,0,1-6.75-6.41,17.23,17.23,0,0,1-2.38-8.91,21.48,21.48,0,0,1,2.92-10.57,23.83,23.83,0,0,1,8.17-8.6,21.54,21.54,0,0,1,11.91-3.37,20.87,20.87,0,0,1,10.14,2.38A17.1,17.1,0,0,1,385.45,26a17.54,17.54,0,0,1,2.37,9,21,21,0,0,1-2.95,10.46A24.37,24.37,0,0,1,376.66,54a21.44,21.44,0,0,1-11.8,3.36A21.09,21.09,0,0,1,354.69,55Zm16.14-10.62a10.09,10.09,0,0,0,3.44-3.71,9.61,9.61,0,0,0,1.21-4.56,6.94,6.94,0,0,0-1.08-3.81,7.58,7.58,0,0,0-2.88-2.65,8.26,8.26,0,0,0-3.89-.95,9.16,9.16,0,0,0-5.1,1.44,9.79,9.79,0,0,0-3.4,3.72,10.12,10.12,0,0,0-1.19,4.7A6.78,6.78,0,0,0,359,42.28a7.28,7.28,0,0,0,2.84,2.63,8.14,8.14,0,0,0,3.89,1A9.15,9.15,0,0,0,370.83,44.41Z"/><path d="M435.7,18.14l-3.38,15.92-3.71,17.35q-2,9.39-7.54,14T406.4,70.09a37.27,37.27,0,0,1-9.58-1.29,24.57,24.57,0,0,1-7.74-3.32l5.69-9a20,20,0,0,0,5.29,2.33,23.6,23.6,0,0,0,6.2.77,10.94,10.94,0,0,0,6.8-2,10.44,10.44,0,0,0,3.6-6.28A16.81,16.81,0,0,1,407.41,54a19,19,0,0,1-8.34-1.72,12.62,12.62,0,0,1-5.56-5.19,16.76,16.76,0,0,1-2-8.46,20.28,20.28,0,0,1,2.79-10.11A22.75,22.75,0,0,1,402,20.41a20.2,20.2,0,0,1,11.06-3.13,15.93,15.93,0,0,1,6.51,1.21,11.34,11.34,0,0,1,4.47,3.43l2.26-3.78ZM405.93,42A7.39,7.39,0,0,0,411,43.78a9.36,9.36,0,0,0,4.77-1.23,8.79,8.79,0,0,0,3.33-3.24,8.1,8.1,0,0,0,1.19-4.21,7.11,7.11,0,0,0-1-3.83,6.43,6.43,0,0,0-2.64-2.43A8.09,8.09,0,0,0,413,28a8.49,8.49,0,0,0-4.75,1.33A9.3,9.3,0,0,0,404,37,6.38,6.38,0,0,0,405.93,42Z"/><polygon points="448.67 56.3 436.5 56.3 444.63 18.14 456.8 18.14 448.67 56.3"/><path class="cls-1" d="M448.72,12.8a5,5,0,0,1-2-2A5.52,5.52,0,0,1,446,8.1a5.24,5.24,0,0,1,.14-1.3,8,8,0,0,1,1.58-3.29A9.59,9.59,0,0,1,450.82,1a8.28,8.28,0,0,1,3.93-1,6,6,0,0,1,3.11.76,5.17,5.17,0,0,1,2,2,5.52,5.52,0,0,1,.68,2.72,5.27,5.27,0,0,1-.14,1.33,7.85,7.85,0,0,1-1.58,3.28,9.35,9.35,0,0,1-3.06,2.5,8.39,8.39,0,0,1-3.93,1A6.25,6.25,0,0,1,448.72,12.8Z"/><path d="M467.82,56.3H453.45l17.43-19.62-8.54-18.54h14.12l3.7,11.2,8.43-11.2h14.54L487,36.68l8.85,19.62H481.75l-4.36-12.2Z"/></g></g></svg>